<svg width="122" height="24" viewBox="0 0 122 24" fill="none" xmlns="http://www.w3.org/2000/svg">
<path d="M11.8813 23.52L11.3677 19.4743V12.7886C11.3677 11.6229 11.128 10.76 10.6487 10.2C10.1807 9.64 9.3818 9.36 8.25187 9.36C7.60131 9.36 7.03635 9.45714 6.55698 9.65143C6.07762 9.84571 5.70669 10.1257 5.44418 10.4914C5.19309 10.8457 5.06754 11.28 5.06754 11.7943H0.650562C0.650562 10.5371 0.953017 9.51429 1.55793 8.72571C2.16283 7.92571 3.03025 7.34286 4.16018 6.97714C5.30151 6.6 6.66541 6.41143 8.25187 6.41143C9.68996 6.41143 10.9454 6.64572 12.0183 7.11429C13.0911 7.57143 13.9243 8.28 14.5178 9.24C15.1113 10.2 15.4081 11.4286 15.4081 12.9257V23.52H11.8813ZM6.43714 24C5.01047 24 3.81777 23.7543 2.85905 23.2629C1.91174 22.76 1.1984 22.1029 0.719043 21.2914C0.239681 20.48 0 19.6 0 18.6514C0 17.6 0.273921 16.72 0.821763 16.0114C1.38102 15.2914 2.16854 14.7543 3.18433 14.4C4.20012 14.0343 5.39853 13.8514 6.77955 13.8514C7.6812 13.8514 8.5315 13.92 9.33044 14.0571C10.1408 14.1943 10.9454 14.3771 11.7444 14.6057V16.9714C11.1166 16.7657 10.4318 16.6057 9.68996 16.4914C8.94809 16.3771 8.25187 16.32 7.60131 16.32C6.64259 16.32 5.85506 16.4971 5.23874 16.8514C4.62242 17.2057 4.31426 17.8057 4.31426 18.6514C4.31426 19.2686 4.56535 19.8 5.06754 20.2457C5.56973 20.6914 6.36866 20.9143 7.46435 20.9143C8.29752 20.9143 9.00515 20.7314 9.58724 20.3657C10.1693 20 10.6087 19.5429 10.9055 18.9943C11.2136 18.4457 11.3677 17.8971 11.3677 17.3486H12.3264C12.3264 18.5486 12.1039 19.6571 11.6588 20.6743C11.2136 21.68 10.5517 22.4857 9.67284 23.0914C8.80542 23.6971 7.72686 24 6.43714 24Z" fill="#1F1F1F"/>
<path d="M18.5911 23.52V0H22.6314V23.52H18.5911Z" fill="#1F1F1F"/>
<path d="M32.8242 24C31.3063 24 29.931 23.6743 28.6983 23.0229C27.4771 22.3714 26.5069 21.4 25.7879 20.1086C25.0689 18.8057 24.7093 17.1771 24.7093 15.2229C24.7093 13.2343 25.0689 11.5886 25.7879 10.2857C26.5069 8.98286 27.4771 8.01143 28.6983 7.37143C29.931 6.73143 31.3063 6.41143 32.8242 6.41143C34.3194 6.41143 35.6719 6.73143 36.8817 7.37143C38.1029 8.01143 39.0731 8.98286 39.7921 10.2857C40.5112 11.5886 40.8707 13.2343 40.8707 15.2229C40.8707 17.1771 40.5112 18.8057 39.7921 20.1086C39.0731 21.4 38.1029 22.3714 36.8817 23.0229C35.6719 23.6743 34.3194 24 32.8242 24ZM32.6873 20.4686C33.4862 20.4686 34.1939 20.2743 34.8102 19.8857C35.4379 19.4857 35.9287 18.8971 36.2825 18.12C36.6477 17.3429 36.8303 16.3771 36.8303 15.2229C36.8303 13.4629 36.4822 12.1371 35.786 11.2457C35.1012 10.3543 34.1596 9.90857 32.9612 9.90857C32.1509 9.90857 31.4318 10.1086 30.8041 10.5086C30.1763 10.8971 29.6799 11.4857 29.3146 12.2743C28.9608 13.0629 28.7839 14.0457 28.7839 15.2229C28.7839 16.96 29.132 18.2686 29.8282 19.1486C30.5359 20.0286 31.4889 20.4686 32.6873 20.4686Z" fill="#1F1F1F"/>
<path d="M48.5544 24C47.5728 24 46.6712 23.8171 45.8494 23.4514C45.0391 23.0857 44.3885 22.5257 43.8977 21.7714C43.4184 21.0171 43.1787 20.0571 43.1787 18.8914V2.46857H47.219V18.7543C47.219 20.1257 47.8696 20.8114 49.1707 20.8114C49.5702 20.8114 49.9696 20.7657 50.3691 20.6743C50.7686 20.5829 51.2251 20.4457 51.7387 20.2629L52.3208 23.1086C51.6816 23.36 51.0596 23.5714 50.4547 23.7429C49.8498 23.9143 49.2164 24 48.5544 24ZM40.8503 9.56571V6.89143H51.7387V9.56571H40.8503Z" fill="#1F1F1F"/>
<path d="M65.316 23.52L64.8024 19.4743V12.7886C64.8024 11.6229 64.5627 10.76 64.0833 10.2C63.6154 9.64 62.8165 9.36 61.6865 9.36C61.036 9.36 60.471 9.45714 59.9916 9.65143C59.5123 9.84571 59.1414 10.1257 58.8788 10.4914C58.6278 10.8457 58.5022 11.28 58.5022 11.7943H54.0852C54.0852 10.5371 54.3877 9.51429 54.9926 8.72571C55.5975 7.92571 56.4649 7.34286 57.5948 6.97714C58.7362 6.6 60.1001 6.41143 61.6865 6.41143C63.1246 6.41143 64.3801 6.64572 65.4529 7.11429C66.5258 7.57143 67.359 8.28 67.9525 9.24C68.546 10.2 68.8427 11.4286 68.8427 12.9257V23.52H65.316ZM59.8718 24C58.4451 24 57.2524 23.7543 56.2937 23.2629C55.3464 22.76 54.6331 22.1029 54.1537 21.2914C53.6743 20.48 53.4347 19.6 53.4347 18.6514C53.4347 17.6 53.7086 16.72 54.2564 16.0114C54.8157 15.2914 55.6032 14.7543 56.619 14.4C57.6348 14.0343 58.8332 13.8514 60.2142 13.8514C61.1159 13.8514 61.9662 13.92 62.7651 14.0571C63.5754 14.1943 64.3801 14.3771 65.179 14.6057V16.9714C64.5513 16.7657 63.8665 16.6057 63.1246 16.4914C62.3828 16.3771 61.6865 16.32 61.036 16.32C60.0772 16.32 59.2897 16.4971 58.6734 16.8514C58.0571 17.2057 57.7489 17.8057 57.7489 18.6514C57.7489 19.2686 58 19.8 58.5022 20.2457C59.0044 20.6914 59.8033 20.9143 60.899 20.9143C61.7322 20.9143 62.4398 20.7314 63.0219 20.3657C63.604 20 64.0434 19.5429 64.3401 18.9943C64.6483 18.4457 64.8024 17.8971 64.8024 17.3486H65.7611C65.7611 18.5486 65.5386 19.6571 65.0934 20.6743C64.6483 21.68 63.9863 22.4857 63.1075 23.0914C62.2401 23.6971 61.1615 24 59.8718 24Z" fill="#1F1F1F"/>
<path d="M93.9052 23.52V13.7829C93.9052 12.5486 93.6084 11.6171 93.0149 10.9886C92.4214 10.36 91.6453 10.0457 90.6866 10.0457C89.4768 10.0457 88.5238 10.5371 87.8275 11.52C87.1313 12.5029 86.7832 13.9886 86.7832 15.9771H85.1055C85.1055 14.2286 85.2652 12.7486 85.5848 11.5371C85.9158 10.3143 86.378 9.33143 86.9715 8.58857C87.5764 7.83429 88.2841 7.28571 89.0944 6.94286C89.9048 6.58857 90.8007 6.41143 91.7823 6.41143C93.1405 6.41143 94.2761 6.72 95.1892 7.33714C96.1136 7.94286 96.8099 8.8 97.2778 9.90857C97.7458 11.0171 97.9797 12.3086 97.9797 13.7829V23.52H93.9052ZM71.3409 23.52V6.89143H74.8676L75.3128 9.73714C75.8606 8.62857 76.5854 7.8 77.487 7.25143C78.3887 6.69143 79.4216 6.41143 80.5857 6.41143C81.9554 6.41143 83.0967 6.72 84.0098 7.33714C84.9342 7.94286 85.6248 8.8 86.0813 9.90857C86.5492 11.0171 86.7832 12.3086 86.7832 13.7829V23.52H82.7429V13.7829C82.7429 12.5486 82.4461 11.6171 81.8526 10.9886C81.2591 10.36 80.483 10.0457 79.5243 10.0457C78.714 10.0457 77.9949 10.2686 77.3672 10.7143C76.7509 11.16 76.2658 11.8343 75.912 12.7371C75.5582 13.6286 75.3812 14.7429 75.3812 16.08V23.52H71.3409Z" fill="#1F1F1F"/>
<path d="M111.683 23.52L111.17 19.4743V12.7886C111.17 11.6229 110.93 10.76 110.451 10.2C109.983 9.64 109.184 9.36 108.054 9.36C107.403 9.36 106.838 9.45714 106.359 9.65143C105.88 9.84571 105.509 10.1257 105.246 10.4914C104.995 10.8457 104.869 11.28 104.869 11.7943H100.453C100.453 10.5371 100.755 9.51429 101.36 8.72571C101.965 7.92571 102.832 7.34286 103.962 6.97714C105.103 6.6 106.467 6.41143 108.054 6.41143C109.492 6.41143 110.747 6.64572 111.82 7.11429C112.893 7.57143 113.726 8.28 114.32 9.24C114.913 10.2 115.21 11.4286 115.21 12.9257V23.52H111.683ZM106.239 24C104.812 24 103.62 23.7543 102.661 23.2629C101.714 22.76 101 22.1029 100.521 21.2914C100.042 20.48 99.8019 19.6 99.8019 18.6514C99.8019 17.6 100.076 16.72 100.624 16.0114C101.183 15.2914 101.97 14.7543 102.986 14.4C104.002 14.0343 105.2 13.8514 106.581 13.8514C107.483 13.8514 108.333 13.92 109.132 14.0571C109.943 14.1943 110.747 14.3771 111.546 14.6057V16.9714C110.919 16.7657 110.234 16.6057 109.492 16.4914C108.75 16.3771 108.054 16.32 107.403 16.32C106.445 16.32 105.657 16.4971 105.041 16.8514C104.424 17.2057 104.116 17.8057 104.116 18.6514C104.116 19.2686 104.367 19.8 104.869 20.2457C105.372 20.6914 106.171 20.9143 107.266 20.9143C108.099 20.9143 108.807 20.7314 109.389 20.3657C109.971 20 110.411 19.5429 110.707 18.9943C111.016 18.4457 111.17 17.8971 111.17 17.3486H112.128C112.128 18.5486 111.906 19.6571 111.461 20.6743C111.016 21.68 110.354 22.4857 109.475 23.0914C108.607 23.6971 107.529 24 106.239 24Z" fill="#1F1F1F"/>
<path d="M116.834 21.7456C116.834 21.1628 117.031 20.6742 117.425 20.2799C117.818 19.8856 118.323 19.6885 118.94 19.6885C119.556 19.6885 120.07 19.8856 120.481 20.2799C120.891 20.6742 121.097 21.1628 121.097 21.7456C121.097 22.3199 120.891 22.7999 120.481 23.1856C120.07 23.5628 119.556 23.7513 118.94 23.7513C118.323 23.7513 117.818 23.5585 117.425 23.1728C117.031 22.787 116.834 22.3113 116.834 21.7456Z" fill="#B42D2D"/>
</svg>
